<svg xmlns="http://www.w3.org/2000/svg" viewBox="0 0 40 50">
  <!-- Pear logo for dark mode -->
  <g transform="translate(0,0)">
    <!-- Stem -->
    <rect x="18" y="2" width="4" height="8" fill="#a67c52" rx="1" ry="1" />
    
    <!-- Pear body made of horizontal lines -->
    <rect x="15" y="10" width="10" height="2" fill="#d4ff5a" rx="1" ry="1" />
    <rect x="13" y="13" width="14" height="2" fill="#d4ff5a" rx="1" ry="1" />
    <rect x="12" y="16" width="16" height="2" fill="#d4ff5a" rx="1" ry="1" />
    <rect x="11" y="19" width="18" height="2" fill="#d4ff5a" rx="1" ry="1" />
    <rect x="10" y="22" width="20" height="2" fill="#d4ff5a" rx="1" ry="1" />
    <rect x="10" y="25" width="20" height="2" fill="#d4ff5a" rx="1" ry="1" />
    <rect x="10" y="28" width="20" height="2" fill="#d4ff5a" rx="1" ry="1" />
    <rect x="11" y="31" width="18" height="2" fill="#d4ff5a" rx="1" ry="1" />
    <rect x="12" y="34" width="16" height="2" fill="#d4ff5a" rx="1" ry="1" />
    <rect x="13" y="37" width="14" height="2" fill="#d4ff5a" rx="1" ry="1" />
    <rect x="15" y="40" width="10" height="2" fill="#d4ff5a" rx="1" ry="1" />
  </g>
</svg>
